<svg xmlns="http://www.w3.org/2000/svg" width="64" height="57.621" viewBox="0 0 64 57.621">
  <g id="Grupo_76" data-name="Grupo 76" transform="translate(-25.755)">
    <path id="Caminho_121" data-name="Caminho 121" d="M2025.667,54.583c-5.587-4.791-22.187-18.423-30.067-18.423s-24.471,13.623-30.061,18.417c-.034-1.133-.065-1.82-.065-2.829a4.853,4.853,0,0,1,1.336-3.332A98.524,98.524,0,0,1,1992.026,31.9c3.789-1.6,3.576-1.3,3.572-7.727a2.1,2.1,0,0,1,.277,0c5.336.483,19.682,14.407,28.173,23.82a7.135,7.135,0,0,1,1.676,3.965c0,.95-.026,1.886-.057,2.626m-.228-7.858c-.9-1-22.148-24.452-29.839-24.452s-28.936,23.452-29.837,24.451h0a8.967,8.967,0,0,0-2.162,5.233c0,2.152.143,4.317.145,4.338,0,.1.054,1.014.563,1.263a.593.593,0,0,0,.263.061,1.1,1.1,0,0,0,.628-.251c.229-.2,21.873-19.32,30.4-19.32s30.175,19.117,30.392,19.311a1.12,1.12,0,0,0,.64.261.606.606,0,0,0,.263-.06c.507-.248.557-1.164.562-1.267,0-.016.144-2.182.144-4.333a8.979,8.979,0,0,0-2.161-5.235m.2-14.447c-5.582-4.785-22.165-18.4-30.036-18.4s-24.447,13.61-30.031,18.4c-.034-1.13-.065-1.819-.065-2.826a4.847,4.847,0,0,1,1.335-3.328,98.443,98.443,0,0,1,25.191-16.5c3.785-1.6,3.572-1.3,3.569-7.719a2.1,2.1,0,0,1,.277,0c5.33.483,19.663,14.393,28.144,23.8a7.127,7.127,0,0,1,1.675,3.961c0,.947-.028,1.883-.058,2.622m-.228-7.85c-.9-1-22.126-24.428-29.809-24.428s-28.907,23.429-29.807,24.427h0a8.957,8.957,0,0,0-2.161,5.228c0,2.149.144,4.312.145,4.333,0,.1.054,1.013.562,1.262a.591.591,0,0,0,.263.06,1.1,1.1,0,0,0,.627-.251c.23-.2,21.852-19.3,30.373-19.3s30.145,19.1,30.361,19.291a1.112,1.112,0,0,0,.639.259.59.59,0,0,0,.263-.06c.506-.248.557-1.163.561-1.266,0-.016.144-2.179.144-4.329a8.953,8.953,0,0,0-2.159-5.228" transform="translate(-1937.845)" fill="#fff" fill-rule="evenodd"/>
  </g>
</svg>
