<svg xmlns="http://www.w3.org/2000/svg" width="72" height="44.307" viewBox="0 0 72 44.307">
  <g id="Warstwa_x0020_1" transform="translate(0 0)">
    <g id="_217956912" transform="translate(0 0)">
      <path id="_217961256" d="M0,0,1.439,44.307h7L8.282,25.934h5.867V20.206H8.282L8.3,5.789h7.659L15.922,0Z" transform="translate(0 0)" fill="#a70230"/>
      <path id="_217958256" d="M28.459,0l.885,44.307h7.224L36.715,0Z" transform="translate(-9.839 0)" fill="#a70230"/>
      <path id="_217960584" d="M80.036,0V5.589h5.707l-.164,38.718h6.989L94.052,5.582h5.66L99.668,0Z" transform="translate(-27.711 0)" fill="#a70230"/>
      <path id="_217960752" d="M53.933,20.506l.079-15.05h4.033c1.829,3.352,3,7.784,3.925,15.05Zm-6.445,23.8h6.688l.075-18.321h8.014c.63,3.234.784,13.216.822,18.321h6.488C70.186,21.686,68.284,8.9,63.031,0H46.876l.612,44.306Z" transform="translate(-16.239 0)" fill="#a70230"/>
    </g>
  </g>
</svg>
