<svg xmlns="http://www.w3.org/2000/svg" width="81.998" height="30.747" viewBox="0 0 81.998 30.747">
  <g id="layer1" transform="translate(-127.291 -152.824)">
    <path id="path737" d="M168.29,152.824c-22.757,0-41,6.821-41,15.373,0,8.5,18.392,15.374,41,15.374s41-6.9,41-15.374-18.392-15.373-41-15.373" transform="translate(0 0)" fill="#003478"/>
    <path id="path741" d="M162.807,163.6c.011.07.1.138.193.17.033.011.049.033.015.108a8.824,8.824,0,0,1-.81,1.338,5.024,5.024,0,0,1-1.028,1.112c-.606.5-1.447,1.047-2.142.68a1.052,1.052,0,0,1-.436-.942,4.927,4.927,0,0,1,1.261-2.987c.985-1.213,2.075-1.842,2.79-1.5.74.353.5,1.209.172,1.881a.188.188,0,0,0-.015.139m7.937-7.666c.053-.094,0-.162-.121-.162H168.55c-.153,0-.233.018-.3.161-.238.455-3.133,4.795-3.672,5.637-.091.128-.2.11-.215-.037a1.813,1.813,0,0,0-1.168-1.351,2.968,2.968,0,0,0-1.554-.179,5.535,5.535,0,0,0-2.547,1.2c-1.124.855-2.094,1.962-3.346,2.781-.683.446-1.62.834-2.246.254a1.9,1.9,0,0,1,.365-2.6c.091-.095.2-.015.184.069a1.144,1.144,0,0,0,.329,1.1,1.236,1.236,0,0,0,1.383.151,1.813,1.813,0,0,0,.962-1.388,1.58,1.58,0,0,0-1.452-1.8,2.9,2.9,0,0,0-2.086.756,4,4,0,0,0-.822.9c-.071.1-.18.113-.177-.039.033-1.18-.454-1.843-1.43-1.865a3.633,3.633,0,0,0-2.2.9,20.363,20.363,0,0,0-1.943,1.981c-.081.085-.151.081-.174-.084a3.972,3.972,0,0,0-.578-2.076.481.481,0,0,0-.624-.153,4.532,4.532,0,0,0-.733.438.411.411,0,0,0-.124.465,5.46,5.46,0,0,1-.2,3.616,3.986,3.986,0,0,1-2.274,2.267,1.5,1.5,0,0,1-1.756-.474c-.578-.8-.345-2.194.517-3.35a6.486,6.486,0,0,1,2.959-2.082.172.172,0,0,0,.119-.242c-.059-.18-.155-.426-.193-.538-.1-.268-.383-.311-.727-.274a6.179,6.179,0,0,0-2.227.747,7.6,7.6,0,0,0-3.2,3.957,4.035,4.035,0,0,1-.583,1.079,10.7,10.7,0,0,1-1.335,1.3.236.236,0,0,0-.055.272,2.929,2.929,0,0,0,.518.681.3.3,0,0,0,.288-.058,6.963,6.963,0,0,0,1.311-1.169c.1-.118.2-.068.248.11a2.894,2.894,0,0,0,1.864,1.982c1.706.575,3.476-.257,4.812-1.707a19.084,19.084,0,0,0,1.481-1.917,17.9,17.9,0,0,1,2.935-3.193c.475-.362,1.037-.638,1.32-.455.227.147.3.489-.064,1.151-1.321,2.412-3.265,5.247-3.621,5.934-.065.119-.007.213.117.213.691,0,1.377,0,2,0a.236.236,0,0,0,.2-.127c1.014-1.587,1.968-3.1,2.991-4.659.057-.092.11-.022.112.018a2.6,2.6,0,0,0,.325,1.183,1.77,1.77,0,0,0,1.542.864,2.889,2.889,0,0,0,1.249-.263,4.375,4.375,0,0,0,1.026-.551c.153-.106.179.072.176.1a3,3,0,0,0,1.307,3.371c1.5.739,3.145-.3,4.092-1.237.093-.09.192-.081.2.114a1.739,1.739,0,0,0,.478,1.08c.794.8,2.4.481,4-.763a20.154,20.154,0,0,0,3.087-3.114.139.139,0,0,0-.007-.2c-.149-.156-.363-.333-.511-.47a.183.183,0,0,0-.222,0,25.852,25.852,0,0,1-3.2,2.932c-.439.306-1.138.553-1.452.128a.7.7,0,0,1,.011-.693c.379-.946,6.384-10.088,6.7-10.627" transform="translate(21.634 7.855)" fill="#fff"/>
    <path id="path745" d="M151.712,161.067c.026.136.078.162.14.151a1.471,1.471,0,0,0,.839-.6c.18-.264.265-.646.086-.8a.475.475,0,0,0-.613.072,1.362,1.362,0,0,0-.452,1.181m-15.3,11.768a4.183,4.183,0,0,1-4.438-3.763,4.835,4.835,0,0,1,1-3.485,4.955,4.955,0,0,1,2.749-1.766,1.034,1.034,0,0,1,.9.185.488.488,0,0,1-.078.8,4.629,4.629,0,0,0-2.038,1.878,2.3,2.3,0,0,0,.114,2.379c.9,1.357,3.405,1.395,5.736-.77a20.039,20.039,0,0,0,1.619-1.642,36.519,36.519,0,0,0,2.732-3.494.076.076,0,0,0,.015-.064c-.011-.026-.029-.029-.07-.033a4.167,4.167,0,0,0-2.477.873.482.482,0,0,1-.682-.074.546.546,0,0,1,.212-.733,9.148,9.148,0,0,1,3.983-1.254.229.229,0,0,0,.175-.1c.569-.73,1-1.388,1.6-2.126a16.222,16.222,0,0,1,2-1.953,8.927,8.927,0,0,1,1.929-1.265c.145-.076-.018-.166-.062-.166-3.061-.575-6.244-1.32-9.284-.194-2.106.786-3.028,2.456-2.585,3.571.316.791,1.357.92,2.331.443a5.269,5.269,0,0,0,2.089-1.859c.3-.457.923-.127.585.666-.89,2.091-2.589,3.75-4.66,3.82a2.718,2.718,0,0,1-2.9-2.838c.007-3.154,3.519-5.232,7.209-5.543,4.444-.367,8.654.817,13.066,1.352a28.416,28.416,0,0,0,10.02-.363.512.512,0,0,1,.657.575c-.033.587-.487,1.151-1.607,1.762a8.186,8.186,0,0,1-4,.921c-3.363.029-6.5-1.283-9.737-1.987,0,.142.041.311-.078.4a15.367,15.367,0,0,0-4.506,4.558c-.037.044-.018.085.047.081.944-.05,1.792-.074,2.674-.145.154-.015.16-.051.146-.164a2.19,2.19,0,0,1,.685-1.9A1.278,1.278,0,1,1,153.507,161a2.157,2.157,0,0,1-1.305,1.059s-.1.022-.087.115c.018.149.684.518.741.616a.313.313,0,0,1-.074.35.42.42,0,0,1-.322.154.675.675,0,0,1-.329-.121,3.139,3.139,0,0,1-.92-.741c-.085-.106-.128-.108-.34-.1-.953.055-2.44.2-3.447.325-.244.029-.28.076-.33.161a42.192,42.192,0,0,1-5.2,7.416c-2.019,2.05-3.7,2.59-5.48,2.6" transform="translate(12.416 3.826)" fill="#fff"/>
    <path id="path749" d="M167.045,154.359c-20.936,0-37.906,5.785-37.906,12.864s16.97,12.865,37.906,12.865,37.9-5.786,37.9-12.865-16.969-12.864-37.9-12.864m0,26.9c-21.7,0-39.287-6.282-39.287-14.031s17.589-14.031,39.287-14.031,39.284,6.281,39.284,14.031-17.588,14.031-39.284,14.031" transform="translate(1.245 0.981)" fill="#fff"/>
  </g>
</svg>
