<svg xmlns="http://www.w3.org/2000/svg" width="64" height="52.01" viewBox="0 0 64 52.01">
  <g id="Grupo_1" data-name="Grupo 1" transform="translate(-63.044 -0.25)">
    <path id="svg_6" d="M126.814,10.55c-1.453,6.542-2.051,9.578-3.247,14.281-1.153,4.532-2.051,8.765-3.589,10.818a6.852,6.852,0,0,1-5.041,2.694,32,32,0,0,1-5.725,0,6.852,6.852,0,0,1-5.041-2.694c-1.538-2.052-2.435-6.285-3.546-10.818-1.2-4.746-1.794-7.739-3.247-14.281,0,0-1.453.043-2.093.086-.9.043-1.581.128-2.307.214,0,0,.854,13.469,1.239,19.2.385,5.986,1.111,16.12,1.752,23.773a28.341,28.341,0,0,0,3.29.3c2.136.128,3.119.128,3.119.128.9-3.378,1.965-8.038,3.2-10.048a4.334,4.334,0,0,1,3.461-1.924,27.22,27.22,0,0,1,3.076-.214h0a19.407,19.407,0,0,1,3.076.214,4.334,4.334,0,0,1,3.461,1.924c1.239,2.01,2.35,6.67,3.2,10.048,0,0,.94,0,3.076-.128,2.051-.128,3.29-.3,3.29-.3.641-7.654,1.367-17.744,1.752-23.773.385-5.687,1.239-19.2,1.239-19.2-.726-.086-1.453-.171-2.307-.214-.641-.043-2.093-.086-2.093-.086" transform="translate(-17.109 -5.887)" fill="#fff"/>
    <path id="svg_7" d="M126.7,12.611C125.847,4.057,120.115,2.26,115.111,1.4c-2.523-.428-7.014-.77-9.88-.9C102.707.336,96.805.25,95.009.25s-7.7.086-10.222.257c-2.866.128-7.357.47-9.88.9-5,.855-10.736,2.652-11.591,11.206a76.014,76.014,0,0,0-.257,8.64c.086,5.432.556,9.067.813,11.634a55.344,55.344,0,0,0,1.839,9.666c1.283,3.721,2.438,4.79,3.807,5.9C72,50.463,76.1,51.1,76.959,51.276c4.619.813,13.943.984,18.092.984,4.106,0,13.473-.128,18.092-.984.855-.171,4.961-.77,7.442-2.823,1.369-1.112,2.524-2.181,3.807-5.9a56.082,56.082,0,0,0,1.839-9.666c.257-2.524.727-6.2.813-11.634-.043-3.293-.128-6.33-.342-8.64m-3.165,14.371c-.513,6.843-1.112,10.949-1.967,13.9a11.443,11.443,0,0,1-3.08,5.56c-2.31,2.1-5.475,2.523-7.357,2.823a130.81,130.81,0,0,1-16.125.813,130.356,130.356,0,0,1-16.125-.813c-1.882-.3-5.047-.727-7.357-2.823a11.648,11.648,0,0,1-3.08-5.56c-.855-2.951-1.5-7.057-1.967-13.9a88.651,88.651,0,0,1,.214-14.371c.642-5.389,3.293-8.084,8.982-9.067A83.729,83.729,0,0,1,85.3,2.56c2.737-.171,7.186-.257,9.709-.257,2.481-.043,6.972.086,9.666.257a83.729,83.729,0,0,1,9.624.984c5.689,1.027,8.34,3.721,9.025,9.067a88.487,88.487,0,0,1,.214,14.371" transform="translate(0 0)" fill="#fff"/>
  </g>
</svg>
