<svg xmlns="http://www.w3.org/2000/svg" width="82" height="42.07" viewBox="0 0 82 42.07">
  <g id="hyundai_logo_icon_145819" transform="translate(0 -207.8)">
    <path id="Caminho_22" data-name="Caminho 22" d="M41,249.869c22.654,0,41-9.421,41-21.03S63.654,207.8,41,207.8,0,217.221,0,228.83,18.356,249.869,41,249.869Zm7.7-10.335c-.671,1.575-1.857,4.968-4.55,6.31a7.264,7.264,0,0,1-2.732.622,1.579,1.579,0,0,1-.389,0,70.954,70.954,0,0,1-20.515-2.839,1.6,1.6,0,0,0-.185-.078c-.593-.185-.875-.438-.875-.749a.908.908,0,0,1,.34-.671c.078-.078.2-.185.36-.34,1.342-1.138,5.484-4.113,13.174-7.1a66.952,66.952,0,0,1,9.654-3.082C45.083,231.212,52.793,230.055,48.7,239.534Zm20.758-21.185a.759.759,0,0,1,.7-.486,1.206,1.206,0,0,1,.826.282c4.813,2.965,7.691,6.67,7.691,10.685,0,7.263-9.314,13.485-22.615,16.217-.856.185-1.419.185-1.624-.049a.492.492,0,0,1,0-.642,1.945,1.945,0,0,1,.36-.467c7.253-8.556,12.785-21.185,14.331-24.851A2.4,2.4,0,0,1,69.458,218.349Zm-36.032-.282c.671-1.575,1.857-4.968,4.55-6.31a6.91,6.91,0,0,1,2.732-.622h.408A71.86,71.86,0,0,1,61.6,213.974a.734.734,0,0,1,.233.078c.544.185.826.438.826.749a.981.981,0,0,1-.34.671c-.078.078-.2.2-.36.34-1.371,1.138-5.454,4.113-13.174,7.059a66.829,66.829,0,0,1-9.654,3.111C37.033,226.4,29.333,227.566,33.426,218.067ZM26,212.613c.856-.185,1.526-.185,1.7.049a.488.488,0,0,1,0,.642,3.245,3.245,0,0,1-.34.486c-7.263,8.556-12.785,21.185-14.331,24.822a6.023,6.023,0,0,1-.34.671.851.851,0,0,1-.7.486,1.743,1.743,0,0,1-.856-.282c-4.813-2.965-7.778-6.67-7.778-10.685C3.393,221.567,12.707,215.335,26,212.613Z" transform="translate(0 0)" fill="#fff"/>
    <path id="Caminho_23" data-name="Caminho 23" d="M41,207.8c-22.644,0-41,9.392-41,21s18.356,21,41,21,41-9.421,41-21C82,217.192,63.654,207.8,41,207.8Zm28.5,34.72c-7.574,3.879-17.685,6.028-28.487,6.028s-20.894-2.158-28.468-6.028c-7.292-3.753-11.288-8.6-11.288-13.7s4.015-9.956,11.3-13.709c7.574-3.909,17.685-6.028,28.487-6.028s20.9,2.139,28.487,6.028c7.3,3.753,11.3,8.614,11.3,13.7S76.8,238.767,69.5,242.52Z" transform="translate(0 0)" fill="#fff"/>
  </g>
</svg>
