<svg id="Layer_1_1_" xmlns="http://www.w3.org/2000/svg" width="64" height="53.549" viewBox="0 0 64 53.549">
  <g id="Nissan_Badge_1_">
    <g id="g20">
      <path id="path4" d="M244.9,187.626a2.761,2.761,0,0,1-.343.013H238v1.523h6.663c.051,0,.444,0,.52-.013a2.173,2.173,0,0,0,1.98-2.247,2.138,2.138,0,0,0-1.878-2.221,5,5,0,0,0-.533-.025H240.4a2.215,2.215,0,0,1-.482-.038.638.638,0,0,1-.47-.647.651.651,0,0,1,.482-.635,1.813,1.813,0,0,1,.457-.038h6.283v-1.5h-6.384a4.237,4.237,0,0,0-.635.038,2.178,2.178,0,0,0-.025,4.3c.228.025.546.025.685.025h4.239a2.158,2.158,0,0,1,.3.013.7.7,0,0,1,.647.736A.71.71,0,0,1,244.9,187.626Z" transform="translate(-207.601 -158.713)" fill="#fff"/>
      <path id="path6" d="M147.1,187.626a2.652,2.652,0,0,1-.33.013H140.2v1.523h6.663c.051,0,.444,0,.52-.013a2.173,2.173,0,0,0,1.98-2.247,2.138,2.138,0,0,0-1.878-2.221,5,5,0,0,0-.533-.025H142.6a2.216,2.216,0,0,1-.482-.038.638.638,0,0,1-.47-.647.651.651,0,0,1,.482-.635,1.812,1.812,0,0,1,.457-.038h6.283v-1.5h-6.384a4.236,4.236,0,0,0-.635.038,2.178,2.178,0,0,0-.025,4.3c.228.025.546.025.685.025h4.239a2.158,2.158,0,0,1,.3.013.731.731,0,0,1,.038,1.447Z" transform="translate(-122.221 -158.713)" fill="#fff"/>
      <rect id="rect8" width="1.65" height="7.45" transform="translate(12.914 23.037)" fill="#fff"/>
      <path id="polygon10" d="M9.265,188.85V181.4H7.615v5.559L2.12,181.4H0v7.45H1.65v-5.585l5.534,5.585Z" transform="translate(0 -158.363)" fill="#fff"/>
      <path id="polygon12" d="M438.715,181.4v5.559l-5.5-5.559H431.1v7.45h1.65v-5.585l5.521,5.585h2.082V181.4Z" transform="translate(-376.353 -158.363)" fill="#fff"/>
      <path id="path14" d="M331.445,181.4l-4.645,7.45h2.005l.825-1.333h5.42l.825,1.333h1.993l-4.645-7.45Zm2.754,4.709h-3.719l1.866-3Z" transform="translate(-285.297 -158.363)" fill="#fff"/>
      <path id="path16" d="M22.1,18.8a24.174,24.174,0,0,1,45.665,0l.025.076h7.276V18l-3.022-.355a2.95,2.95,0,0,1-2.768-2.082l-.127-.254a26.8,26.8,0,0,0-48.433.025l-.127.254a2.95,2.95,0,0,1-2.768,2.082l-3.022.355V18.9h7.264Z" transform="translate(-12.922)" fill="#fff"/>
      <path id="path18" d="M67.879,272.813l-.025.076A24.08,24.08,0,0,1,45.022,289.11h0a24.08,24.08,0,0,1-22.832-16.233l-.025-.076H14.9v.876l3.022.355a2.95,2.95,0,0,1,2.768,2.082l.127.254A26.825,26.825,0,0,0,45.034,291.7h0a26.836,26.836,0,0,0,24.217-15.32l.127-.254a2.95,2.95,0,0,1,2.768-2.082l3.022-.355v-.876Z" transform="translate(-13.009 -238.15)" fill="#fff"/>
    </g>
  </g>
</svg>
