<svg xmlns="http://www.w3.org/2000/svg" width="64" height="70.296" viewBox="0 0 64 70.296">
  <g id="_-AP_1.Atoms_6.Logo_desktop_NBi21-white" data-name="•-AP/1.Atoms/6.Logo/desktop/NBi21-white" transform="translate(-24.511 -24.424)">
    <path id="Combined-Shape" d="M56.512,24.424a187.916,187.916,0,0,1,31.8,2.738c.162,4.328.345,11.019.037,16.7-.691,12.658-3.486,22.483-8.8,30.92A53.7,53.7,0,0,1,56.512,94.72,53.7,53.7,0,0,1,33.48,74.779c-5.314-8.437-8.111-18.262-8.8-30.92-.31-5.677-.125-12.368.036-16.7A187.924,187.924,0,0,1,56.512,24.424Zm0,1.219A186.8,186.8,0,0,0,25.9,28.2c-.223,6.421-.223,11.531,0,15.595.678,12.442,3.415,22.083,8.615,30.337a52.158,52.158,0,0,0,22,19.249,52.162,52.162,0,0,0,22-19.249c5.2-8.254,7.937-17.895,8.615-30.337.222-4.064.222-9.173,0-15.595A186.8,186.8,0,0,0,56.512,25.644Zm-.089,36.963s.2,1.185.261,1.528a.781.781,0,0,1-.008.438c-.16.614-.9,3.853-1.491,7.167l-.092.524c-.242,1.4-.451,2.782-.572,3.968a2.77,2.77,0,0,0,.132,1.433c.506,1.689,2.376,6.1,2.735,6.907a.957.957,0,0,1,.075.279h0l.135,1.041a88.813,88.813,0,0,1-5.134-10.176,1.75,1.75,0,0,1-.013-1.3,99.761,99.761,0,0,1,3.972-11.811Zm-4.748-9.173s.25.808.491,1.686l.084.311a14.479,14.479,0,0,1,.338,1.494,1.193,1.193,0,0,1-.083.766c-.3.789-.844,2.057-1.428,3.354l-.252.556c-.716,1.574-1.441,3.094-1.793,3.752a3.381,3.381,0,0,1-.663.866c-.745.756-2.171,2.186-3.054,2.985a1.378,1.378,0,0,0-.472.915c-.105.6-.21,1.636-.239,2.168a1.754,1.754,0,0,0,.313,1.151,71.611,71.611,0,0,0,8.231,10.474,2.9,2.9,0,0,0,.412.312c.218.145.927.6.927.6a.25.25,0,0,1,.07.075h0l.257.451-.067-.033-.111-.055-.343-.17-.33-.165c-.506-.253-1.108-.557-1.425-.727a2.2,2.2,0,0,1-.367-.247,68.218,68.218,0,0,1-8.606-10.222,1.894,1.894,0,0,1-.377-1.467c.1-1.138.25-2.57.382-3.2a1.765,1.765,0,0,1,.455-.935c.978-1.122,2.17-2.6,3.332-4.124l.408-.538a52.283,52.283,0,0,0,3.988-5.856,1.083,1.083,0,0,0,.153-.62,19.267,19.267,0,0,0-.292-2.549.691.691,0,0,1-.007-.173h0Zm14.494-1.391.449.195a1.091,1.091,0,0,1,.354.245,47.432,47.432,0,0,1,5.4,6.62,1.253,1.253,0,0,1,.164.473,34.385,34.385,0,0,1-.941,12.458,1.2,1.2,0,0,1-.529.777c-1.079.809-2.689,2.1-4.291,3.416l-.5.416c-1.929,1.593-3.762,3.153-4.54,3.871a2.921,2.921,0,0,0-.5.612c-.365.591-.922,1.609-1.195,2.114l-.076.141-.087.161c-.363-.79-1.153-2.716-1.425-3.495a.99.99,0,0,1-.011-.727,76.994,76.994,0,0,1,2.941-7.157h0v.347a.467.467,0,0,1-.024.148,54.075,54.075,0,0,0-1.536,5.859,2.231,2.231,0,0,0,0,.8,16.522,16.522,0,0,0,.549,2.123,9.531,9.531,0,0,1,.514-.929,2.472,2.472,0,0,1,.394-.469c1.005-.992,2.721-2.525,4.507-4.067l.632-.544c1.372-1.175,2.742-2.318,3.825-3.192a1.037,1.037,0,0,0,.449-.811,49.279,49.279,0,0,0,.213-8.714,2.958,2.958,0,0,0-.5-1.465,20.765,20.765,0,0,0-2.722-3.165,1.216,1.216,0,0,1-.34-.64c-.359-1.911-1.161-5.4-1.161-5.4Zm-23.28,4.42a.975.975,0,0,1,.527-.02c.785.188,2.446.594,3.7.915a.925.925,0,0,1,.49.365h0l.273.454a.532.532,0,0,1,.017.52c-.228.441-.554,1.039-.9,1.655l-.26.464c-.479.848-.957,1.667-1.228,2.1a.987.987,0,0,1-.6.523c-1.235.433-2.77.952-3.682,1.246a.287.287,0,0,0-.213.379c.065.376.276,1.651.356,2.023a.267.267,0,0,0,.345.208c.539-.1,1.974-.452,1.974-.452s-.423.39-.676.62a.425.425,0,0,1-.16.095c-.391.13-1.346.4-1.643.462-.232.05-.38-.041-.44-.3,0,0-.407-1.728-.554-2.316-.023-.09-.046-.167-.075-.255-.11-.34-.375-1.009-.524-1.359a.313.313,0,0,1-.025-.129c0-.4.078-1.293.078-1.293s.878.821,1.3,1.118a.273.273,0,0,0,.271.051c.584-.15,1.927-.593,2.664-.868a1.024,1.024,0,0,0,.43-.307,21.421,21.421,0,0,0,2.271-3.424.639.639,0,0,0,.043-.478h0l-.119-.391a.506.506,0,0,0-.268-.286c-1.3-.493-2.324-.859-3.527-1.268h0ZM68.584,45.341a1.2,1.2,0,0,1,.88.02,46.954,46.954,0,0,1,7.875,4.568.7.7,0,0,1,.326.483,28.875,28.875,0,0,1,.358,8.341,1.412,1.412,0,0,1-.168.541,38.935,38.935,0,0,1-4.269,7.016h0l0-.031c.02-.2.13-1.35.135-1.97a.225.225,0,0,1,.089-.177c.284-.22.673-.533.894-.723a1.027,1.027,0,0,0,.223-.252,29.217,29.217,0,0,0,2.184-4.367,2.3,2.3,0,0,0,.126-.961,39.354,39.354,0,0,0-.834-5.792.979.979,0,0,0-.5-.629c-.356-.182-1.055-.5-2.646-1.136a2.248,2.248,0,0,1-.608-.363c-1.043-.874-2.674-2.185-3.689-2.939a1.268,1.268,0,0,0-1.037-.219c-.739.167-1.68.4-2.21.543a.92.92,0,0,1-.437.031c-.1-.011-.222-.023-.353-.035l-.2-.017c-.231-.02-.448-.036-.533-.043l-.038,0c1.726-.808,3.386-1.506,4.426-1.885ZM45.559,59.573a22.579,22.579,0,0,1-1.672,2.414.586.586,0,0,1-.245.172c-.533.2-1.422.5-2.076.7h0ZM38.426,58.41,38.107,60.6l-1.083-1.268a1.917,1.917,0,0,1,1.4-.924ZM44.26,46l-.3.363-.049.048c-.26.192-1.357,1.029-1.653,1.264a.331.331,0,0,0-.137.229c-.067.371-.178,1.075-.21,1.465a.231.231,0,0,1-.176.218c-.509.206-1.111.423-1.6.618a.641.641,0,0,0-.2.1c-.049.038-.7.614-.7.614s1.408-.346,1.925-.462a.364.364,0,0,1,.29.033c.107.049.284.119.378.153a.56.56,0,0,0,.379.016c.582-.13,1.56-.361,2.081-.5a1.744,1.744,0,0,0,.648-.3c.25-.173.881-.646.881-.646s-.012.083-.02.13a.175.175,0,0,1-.047.093c-.128.154-.353.405-.465.52a1.816,1.816,0,0,1-.73.492c-1.48.615-4.009,1.57-5.906,2.225a.583.583,0,0,0-.27.173c-.1.1-.234.249-.234.249s1.547.112,2.019.166a.649.649,0,0,1,.379.168c.388.333,1.673,1.652,2.057,2.11,0,0-3.652.606-5.345,1.025a.467.467,0,0,0-.361.351c-.14.491-.47,2.068-.47,2.068a1.629,1.629,0,0,1-.281-.132,1.135,1.135,0,0,1-.293-.248,16.846,16.846,0,0,1-1.375-1.7.37.37,0,0,1-.016-.455c.343-.421,1.032-1.19,1.412-1.585a.985.985,0,0,0,.147-.224,7.834,7.834,0,0,0,.355-1.127l.019-.075h0l0-.01-.01.006-.069.044-.311.2a.344.344,0,0,0-.165.174c-.062.129-.17.332-.252.473a.686.686,0,0,1-.137.148c-.485.37-1.021.767-1.4,1.035a.065.065,0,0,1-.082-.012c-.049-.048-.252-.279-.289-.334a.241.241,0,0,1-.044-.143c0-.1.009-.266.018-.392.012-.149.054-.22.236-.408.2-.211.426-.432.659-.659.572-.481,2.017-1.65,4.6-3.487a.562.562,0,0,0,.128-.124c.271-.365,1.041-1.361,1.231-1.6a.568.568,0,0,1,.091-.091,7.293,7.293,0,0,1,.762-.537c.719-.452,2.111-1.275,2.891-1.727Zm15.727-.815a.531.531,0,0,1,.318.043h0l.754.36a.275.275,0,0,1,.148.184c.1.43.228,1,.312,1.484a.874.874,0,0,1-.106.584c-.312.541-.952,1.513-1.311,2.036a.53.53,0,0,0-.065.4c.162.9.84,4.024.84,4.024h0l-.427-.387a.616.616,0,0,1-.177-.268c-.3-.885-.87-2.734-1.132-3.634a.465.465,0,0,1,.088-.425c.445-.538,1.092-1.4,1.471-1.945a.457.457,0,0,0,.078-.449c-.087-.178-.234-.449-.374-.694a.311.311,0,0,0-.176-.143h0l-.511-.164a.426.426,0,0,0-.273.005c-1.114.4-2.613.984-3.53,1.363a.518.518,0,0,1-.352.035c-.266-.039-1.039-.177-1.418-.248a.1.1,0,0,1-.067-.15h0l.45-.777a.434.434,0,0,1,.281-.206c1.446-.329,3.359-.706,5.179-1.026ZM43.98,48.754a.16.16,0,0,1,.161.1.815.815,0,0,1-.022.647.355.355,0,0,1-.226.18h0l-.722.16a.066.066,0,0,1-.081-.069h0l.067-.845a.117.117,0,0,1,.107-.107h0Zm8.213-5.431a.107.107,0,0,1,.094.161h0l-1.76,3.023a.777.777,0,0,1-.456.369h0l-3.3,1.03a4.872,4.872,0,0,1-1.106.208c-.732.055-2.906.123-2.906.123h0l.048-.1a.216.216,0,0,1,.112-.108h0l1.029-.436a.5.5,0,0,0,.2-.147h0l1.589-1.951a1.065,1.065,0,0,1,.314-.266,33.968,33.968,0,0,1,4.223-1.814,1.5,1.5,0,0,1,.419-.069h0Zm-1.764-3.51a86.409,86.409,0,0,1,13.277-.051,2.473,2.473,0,0,1,.775.187,79.98,79.98,0,0,1,7.321,3.8,2.3,2.3,0,0,1,.377.268c.806.708,2.848,2.793,2.848,2.793h0l-.637-.126a.674.674,0,0,1-.248-.1A48.768,48.768,0,0,0,69.4,43.8a1.746,1.746,0,0,0-.6-.175c-.767-.082-1.8-.153-2.482-.181a1.923,1.923,0,0,1-.889-.235c-.625-.316-2.14-1-2.894-1.289a1.8,1.8,0,0,0-.8-.147c-1.3.019-4.249.113-5.758.206a.718.718,0,0,1-.153-.007h0l-.719-.112c2.038-.35,7.077-.8,9.163-.908h0l-.849-.283a1.752,1.752,0,0,0-.508-.088c-.453-.011-1.46-.031-2.766-.033h-.446c-1.98,0-4.527.052-6.875.229a1.8,1.8,0,0,0-.594.148c-.949.416-3.263,1.667-5.583,2.953l-.515.286c-.6.333-1.194.665-1.757.981l.345-.444a.4.4,0,0,1,.131-.118l.733-.482.238-.158c.193-.128.365-.243.462-.31.048-.033.078-.056.139-.1.7-.525,1.8-1.452,2.458-2.026a1.952,1.952,0,0,0,.379-.448c.213-.343.445-.715.588-.921a.783.783,0,0,1,.59-.327ZM34.921,31.466c.9-.093,1.4.256,1.4,1.164h0v.5c0,.929-.5,1.3-1.4,1.4q-1.866.194-3.73.422h0v1.373l-.782.1h0V31.985q2.254-.284,4.512-.52Zm41.749-.144q2.975.289,5.943.663h0V32.7q-1.283-.162-2.569-.308h0v3.722l-.783-.088h0V32.305q-1.294-.142-2.591-.268h0Zm-32.947-.583v.715q-2.447.151-4.891.358h0V32.9q2.174-.186,4.35-.324h0V33.3q-2.176.139-4.35.323h0v1.2q2.444-.208,4.891-.358h0v.715q-2.83.174-5.657.425h0V31.163Q40.893,30.912,43.723,30.739ZM69.1,31.954c0-1,.495-1.2,1.61-1.125q1.469.1,2.936.221c.968.08,1.608.351,1.608,1.366h0V34.4c0,1-.552,1.176-1.608,1.089q-1.468-.121-2.936-.221c-1.066-.072-1.61-.277-1.61-1.332h0ZM61.51,30.406q2.833.067,5.666.213h0v.715q-2.448-.125-4.9-.192h0v1.092q2.18.061,4.357.166h0v.716q-2.177-.105-4.357-.166h0v1.2q2.45.067,4.9.193h0v.715q-2.832-.144-5.666-.213h0Zm-9.829,0v3.21c0,1.015-.535,1.238-1.612,1.272q-1.407.043-2.814.106c-1,.045-1.61-.145-1.61-1.15h0V30.63h0l.766-.039v3.345a.37.37,0,0,0,.407.358q1.844-.086,3.688-.139a.387.387,0,0,0,.389-.388h0V30.422l.786-.02Zm18.59,1.114a.367.367,0,0,0-.408.379h0V34.09a.451.451,0,0,0,.408.433q1.905.126,3.808.287a.393.393,0,0,0,.406-.371h0V32.243a.462.462,0,0,0-.406-.441q-1.9-.161-3.808-.286Zm-15.2-1.165q2.112-.015,4.223.014h0v.715q-2.257-.029-4.515-.012a.417.417,0,0,0-.408.381h0v2.223a.432.432,0,0,0,.408.4q2.025-.017,4.049.006h0v-1.2q-1.175-.013-2.35-.012h0v-.716q1.558,0,3.116.023h0v2.629q-2.189-.033-4.379-.019c-1.069.007-1.612-.177-1.612-1.211h0V31.643c0-.966.485-1.284,1.466-1.291Zm-19.854,1.8h-.061q-1.983.2-3.962.446h0v1.633q1.979-.241,3.962-.445a.458.458,0,0,0,.406-.4h0v-.9a.363.363,0,0,0-.406-.336Z" transform="translate(0 0)" fill="#fff" fill-rule="evenodd"/>
  </g>
</svg>
