<svg id="Grupo_2" data-name="Grupo 2" xmlns="http://www.w3.org/2000/svg" xmlns:xlink="http://www.w3.org/1999/xlink" width="44.176" height="58" viewBox="0 0 44.176 58">
  <defs>
    <clipPath id="clip-path">
      <rect id="Retângulo_3" data-name="Retângulo 3" width="44.176" height="58" fill="#fff"/>
    </clipPath>
  </defs>
  <g id="Grupo_2-2" data-name="Grupo 2" clip-path="url(#clip-path)">
    <path id="Caminho_25" data-name="Caminho 25" d="M19.877.073C19.123,1.483,8.95,20.512,4.568,28.687a.705.705,0,0,0,.008.764c4.292,8.011,12.993,24.263,13.083,24.414.09-.151,8.79-16.4,13.083-24.413a.7.7,0,0,0,.009-.764Q27.066,21.834,23.4,14.972a.733.733,0,0,1,0-.805c.675-1.217,1.322-2.449,2.007-3.728.1.165,6.607,12.317,9.8,18.271a.641.641,0,0,1,.008.694Q27.631,43.547,20.074,57.7a.558.558,0,0,1-.577.362c-1.248-.021-2.5-.015-3.744,0a.449.449,0,0,1-.463-.277Q7.694,43.558.083,29.342a.508.508,0,0,1-.006-.549Q7.689,14.578,15.3.359c.064-.119.215-.272.327-.274C17.014.067,18.407.073,19.877.073" transform="translate(0 -0.063)" fill="#fff"/>
    <path id="Caminho_26" data-name="Caminho 26" d="M92.708,5.816c-2.322,4.328-8.724,16.285-12.213,22.8a.7.7,0,0,0-.007.764q3.684,6.854,7.353,13.716a.733.733,0,0,1,0,.805c-.675,1.217-1.322,2.449-2.008,3.729-.091-.154-6.6-12.308-9.8-18.273a.642.642,0,0,1-.007-.695Q83.607,14.516,91.163.362A.558.558,0,0,1,91.74,0c1.248.021,2.5.015,3.744,0a.448.448,0,0,1,.462.278q7.6,14.224,15.207,28.441a.507.507,0,0,1,0,.549q-7.612,14.216-15.217,28.435c-.064.119-.215.271-.327.273-1.393.019-2.785.012-4.244.012.1-.186,10.273-19.234,15.3-28.615a.7.7,0,0,0-.009-.764C102.367,20.6,93.668,4.35,93.577,4.2c-.017.028-.335.621-.87,1.617" transform="translate(-67.061 0)" fill="#fff"/>
  </g>
</svg>
