<svg xmlns="http://www.w3.org/2000/svg" width="64" height="64" viewBox="0 0 64 64">
  <g id="volkswagen-1-logo-svgrepo-com" transform="translate(-2.793 -2.865)">
    <path id="Caminho_123" data-name="Caminho 123" d="M34.793,2.865a32,32,0,1,0,32,32,32,32,0,0,0-32-32Zm0,61.131A29.131,29.131,0,1,1,63.924,34.865,29.131,29.131,0,0,1,34.793,64Z" fill="#fff" fill-rule="evenodd"/>
    <path id="Caminho_124" data-name="Caminho 124" d="M77.692,31.037a22.816,22.816,0,0,1,12.743,0L84.067,45.151,77.692,31.037Z" transform="translate(-49.274 -17.942)" fill="#fff" fill-rule="evenodd"/>
    <path id="Caminho_125" data-name="Caminho 125" d="M64.884,40.477a22.8,22.8,0,0,1,6.14,5.76L60.572,69.366,56.539,60.4H48.9l-4.033,8.967L34.429,46.216a22.784,22.784,0,0,1,6.124-5.739L48.9,58.991h7.667ZM30.821,53.736A22.7,22.7,0,0,0,42.6,79.888Z" transform="translate(-17.94 -24.736)" fill="#fff" fill-rule="evenodd"/>
    <path id="Caminho_126" data-name="Caminho 126" d="M78,107a22.817,22.817,0,0,0,12.532,0L84.27,93.095Zm16.385-1.5A22.7,22.7,0,0,0,106.18,79.4L94.385,105.5Z" transform="translate(-49.462 -50.335)" fill="#fff" fill-rule="evenodd"/>
  </g>
</svg>
