<svg
                      xmlns="http://www.w3.org/2000/svg"
                      width="17.5"
                      height="14"
                      viewBox="0 0 17.5 14"
                    >
                      <g id="bx-share" transform="translate(0)">
                        <path
                          id="Caminho_91"
                          data-name="Caminho 91"
                          d="M12.889,8.679a.893.893,0,0,0,.895-.876V6.414L17.8,10.431l-4.014,4.017V13.058a.875.875,0,0,0-.76-.868,13.179,13.179,0,0,0-1.729-.116,11.456,11.456,0,0,0-6.878,2.233C5.786,8.855,12.092,8.679,12.889,8.679Z"
                          transform="translate(-2.408 -3.431)"
                          fill="none"
                        />
                        <path
                          id="Caminho_92"
                          data-name="Caminho 92"
                          d="M11.628,6.547V3.875a.875.875,0,0,1,1.494-.619l6.125,6.125a.874.874,0,0,1,0,1.237l-6.125,6.125a.875.875,0,0,1-1.494-.619V13.416c-.248-.017-.494-.025-.738-.025a9.493,9.493,0,0,0-7.317,3.264A.874.874,0,0,1,2,16.125C2,8.141,9.078,6.779,11.628,6.547Zm-.738,5.093a13.191,13.191,0,0,1,1.728.116.876.876,0,0,1,.759.868v1.388L17.39,10,13.378,5.987V7.375a.893.893,0,0,1-.894.875c-.8,0-7.1.176-8.469,5.622A11.461,11.461,0,0,1,10.89,11.641Z"
                          transform="translate(-2.003 -3)"
                          fill="#fff"
                        />
                      </g>
                    </svg>