<svg xmlns="http://www.w3.org/2000/svg" width="14" height="13.217" viewBox="0 0 14 13.217">
  <g id="bx-slider-alt" transform="translate(-2 -2.5)">
    <path id="Caminho_20" data-name="Caminho 20" d="M5.826,12.672A2.431,2.431,0,0,0,3.5,14.411H2V15.8H3.5a2.419,2.419,0,0,0,4.643,0h7.766V14.411H8.147A2.431,2.431,0,0,0,5.826,12.672Zm0,3.477A1.043,1.043,0,1,1,6.87,15.106,1.045,1.045,0,0,1,5.826,16.149ZM12.087,8.5a2.431,2.431,0,0,0-2.321,1.738H2v1.391H9.766a2.419,2.419,0,0,0,4.643,0h1.5V10.238h-1.5A2.431,2.431,0,0,0,12.087,8.5Zm0,3.477a1.043,1.043,0,1,1,1.043-1.043A1.045,1.045,0,0,1,12.087,11.977Z" transform="translate(0 -1.823)" fill="#fff"/>
    <path id="Caminho_21" data-name="Caminho 21" d="M9.539,4.238a2.419,2.419,0,0,0-4.643,0H2V5.629H4.9a2.419,2.419,0,0,0,4.643,0H16V4.238ZM7.217,5.977A1.043,1.043,0,1,1,8.261,4.934,1.045,1.045,0,0,1,7.217,5.977Z" fill="#fff"/>
  </g>
</svg>
