<?xml version="1.0" encoding="UTF-8"?><svg id="Camada_2" xmlns="http://www.w3.org/2000/svg" xmlns:xlink="http://www.w3.org/1999/xlink" viewBox="0 0 973.93 492.06"><defs><style>.cls-1{fill:url(#Gradiente_sem_nome_2-4);}.cls-2{fill:#f5f5f5;}.cls-3{fill:#981916;}.cls-4{fill:url(#Gradiente_sem_nome_2);}.cls-5{fill:url(#Gradiente_sem_nome_2-2);}.cls-6{fill:url(#Gradiente_sem_nome_2-3);}</style><linearGradient id="Gradiente_sem_nome_2" x1="519.86" y1="485.81" x2="482.98" y2="401.27" gradientUnits="userSpaceOnUse"><stop offset="0" stop-color="#f5f5f5"/><stop offset="1" stop-color="#d9d9d9"/></linearGradient><linearGradient id="Gradiente_sem_nome_2-2" x1="786.79" y1="487.18" x2="693.03" y2="247.4" xlink:href="#Gradiente_sem_nome_2"/><linearGradient id="Gradiente_sem_nome_2-3" x1="592.71" y1="17.05" x2="529.69" y2="293.72" xlink:href="#Gradiente_sem_nome_2"/><linearGradient id="Gradiente_sem_nome_2-4" x1="144" y1="477.39" x2="227" y2="82.37" xlink:href="#Gradiente_sem_nome_2"/></defs><g id="Camada_1-2"><g><polygon class="cls-3" points="694.75 329.78 694.74 329.81 694.75 329.78 694.75 329.78"/><polygon class="cls-4" points="408.62 492.05 531.06 492.05 571.53 343.06 411.51 481.45 408.62 492.05"/><polygon class="cls-5" points="719.65 492.05 850.45 492.05 743.9 200.94 646.97 279.64 719.65 492.05"/><polygon class="cls-6" points="665.18 0 542.75 0 453.06 329.03 612.96 191.01 665.18 0"/><polygon class="cls-2" points="834.01 0 612.96 191.01 453.06 329.03 453.05 329.07 411.51 481.45 571.53 343.06 646.97 279.64 743.9 200.94 973.93 0 834.01 0"/><path class="cls-2" d="M473.84,0H25.68L0,94.14c58.52-.02,117.15,0,175.78,0,40.81,0,81.55,0,122.35,0,50.03,0,100.08,.02,150.02,0L473.84,0Z"/><path class="cls-1" d="M111.75,329.04h0s-41.55,152.42-41.55,152.42l-2.89,10.6h122.34s40.57-148.99,40.57-148.99l42.45-155.77,25.46-93.15c-40.8,0-81.55,0-122.35,0l-64.03,234.89Z"/></g></g></svg>