<?xml version="1.0" encoding="UTF-8"?><svg id="Camada_2" xmlns="http://www.w3.org/2000/svg" xmlns:xlink="http://www.w3.org/1999/xlink" viewBox="0 0 973.93 492.06"><defs><style>.cls-1{fill:url(#Gradiente_sem_nome_7-3);}.cls-2{fill:#981916;}.cls-3{fill:url(#Gradiente_sem_nome_7);}.cls-4{fill:url(#Gradiente_sem_nome_17);}.cls-5{fill:url(#Gradiente_sem_nome_7-2);}</style><linearGradient id="Gradiente_sem_nome_7" x1="546.88" y1="474.02" x2="471.87" y2="399.45" gradientUnits="userSpaceOnUse"><stop offset="0" stop-color="#981916"/><stop offset="1" stop-color="#421213"/></linearGradient><linearGradient id="Gradiente_sem_nome_17" x1="810.36" y1="463.66" x2="665.6" y2="247.83" gradientUnits="userSpaceOnUse"><stop offset="0" stop-color="#981916"/><stop offset=".22" stop-color="#941815"/><stop offset=".43" stop-color="#881715"/><stop offset=".65" stop-color="#741614"/><stop offset=".86" stop-color="#591313"/><stop offset="1" stop-color="#421213"/></linearGradient><linearGradient id="Gradiente_sem_nome_7-2" x1="583.49" y1="13.57" x2="520.32" y2="404.88" xlink:href="#Gradiente_sem_nome_7"/><linearGradient id="Gradiente_sem_nome_7-3" x1="89.47" y1="524.78" x2="301.42" y2="-1.81" xlink:href="#Gradiente_sem_nome_7"/></defs><g id="Camada_1-2"><g><polygon class="cls-2" points="694.75 329.78 694.74 329.81 694.75 329.78 694.75 329.78"/><g><polygon class="cls-3" points="408.62 492.05 531.06 492.05 571.53 343.06 411.51 481.45 408.62 492.05"/><polygon class="cls-4" points="719.65 492.05 850.45 492.05 743.9 200.94 646.97 279.64 719.65 492.05"/><polygon class="cls-5" points="665.18 0 542.75 0 453.06 329.03 612.96 191.01 665.18 0"/><polygon class="cls-2" points="834.01 0 612.96 191.01 453.06 329.03 453.05 329.07 411.51 481.45 571.53 343.06 646.97 279.64 743.9 200.94 973.93 0 834.01 0"/><path class="cls-2" d="M473.84,0H25.68L0,94.14c58.52-.02,117.15,0,175.78,0,40.81,0,81.55,0,122.35,0,50.03,0,100.08,.02,150.02,0L473.84,0Z"/><path class="cls-1" d="M111.75,329.04h0s-41.55,152.42-41.55,152.42l-2.89,10.6h122.34s40.57-148.99,40.57-148.99l42.45-155.77,25.46-93.15c-40.8,0-81.55,0-122.35,0l-64.03,234.89Z"/></g></g></g></svg>