<?xml version="1.0" encoding="UTF-8"?><svg id="Camada_2" xmlns="http://www.w3.org/2000/svg" xmlns:xlink="http://www.w3.org/1999/xlink" viewBox="0 0 987.93 232.66"><defs><style>.cls-1{fill:url(#Gradiente_sem_nome_54-3);}.cls-2{fill:url(#Gradiente_sem_nome_32);}.cls-3{fill:url(#Gradiente_sem_nome_54-5);}.cls-4{fill:url(#Gradiente_sem_nome_32-3);}.cls-5{fill:url(#Gradiente_sem_nome_54);}.cls-6{fill:url(#Gradiente_sem_nome_32-2);}.cls-7{fill:url(#Gradiente_sem_nome_54-4);}.cls-8{fill:url(#Gradiente_sem_nome_54-6);}.cls-9{fill:url(#Gradiente_sem_nome_54-7);}.cls-10{fill:url(#Gradiente_sem_nome_54-2);}</style><linearGradient id="Gradiente_sem_nome_32" x1="215.59" y1="89.53" x2="95.62" y2="209.51" gradientTransform="matrix(1, 0, 0, 1, 0, 0)" gradientUnits="userSpaceOnUse"><stop offset="0" stop-color="#916d34"/><stop offset=".29" stop-color="#9f783c"/><stop offset=".84" stop-color="#c49851"/></linearGradient><linearGradient id="Gradiente_sem_nome_32-2" x1="44.48" y1="95.19" x2="128.98" y2="12.65" xlink:href="#Gradiente_sem_nome_32"/><linearGradient id="Gradiente_sem_nome_32-3" x1="112.11" y1="165.34" x2="26.09" y2="79.32" xlink:href="#Gradiente_sem_nome_32"/><linearGradient id="Gradiente_sem_nome_54" x1="-641.89" y1="1266.03" x2="-758.88" y2="1383.03" gradientTransform="translate(-521.32 1411.74) rotate(-180)" gradientUnits="userSpaceOnUse"><stop offset="0" stop-color="#b3b3b3"/><stop offset=".18" stop-color="#c2c2c2"/><stop offset=".72" stop-color="#eee"/><stop offset="1" stop-color="#fff"/></linearGradient><linearGradient id="Gradiente_sem_nome_54-2" x1="-812.65" y1="1266.55" x2="-734.64" y2="1190.36" xlink:href="#Gradiente_sem_nome_54"/><linearGradient id="Gradiente_sem_nome_54-3" x1="-740.97" y1="1343.67" x2="-833.59" y2="1251.06" xlink:href="#Gradiente_sem_nome_54"/><linearGradient id="Gradiente_sem_nome_54-4" x1="448.7" y1="206.5" x2="448.7" y2="26.5" gradientTransform="matrix(1, 0, 0, 1, 0, 0)" xlink:href="#Gradiente_sem_nome_54"/><linearGradient id="Gradiente_sem_nome_54-5" x1="739.03" y1="206.5" x2="739.03" y2="26.5" gradientTransform="matrix(1, 0, 0, 1, 0, 0)" xlink:href="#Gradiente_sem_nome_54"/><linearGradient id="Gradiente_sem_nome_54-6" x1="911.62" y1="206.5" x2="911.62" y2="26.5" gradientTransform="matrix(1, 0, 0, 1, 0, 0)" xlink:href="#Gradiente_sem_nome_54"/><linearGradient id="Gradiente_sem_nome_54-7" x1="560.84" y1="206.5" x2="560.84" y2="26.5" gradientTransform="matrix(1, 0, 0, 1, 0, 0)" xlink:href="#Gradiente_sem_nome_54"/></defs><g id="Camada_1-2"><g><g><g><path class="cls-2" d="M122.08,165.2c29.61-25.79,58.44-52.18,86.41-79.74,13.51,13.29,27.16,26.43,40.79,39.59-33.58,33.21-68.39,64.85-103.76,96.14-14.56,12.78-37.89,14.66-52.25,.53-13.13-13.24-26.34-26.37-39.84-39.24,22.74-8.02,44.8-13.67,68.64-17.29Z"/><path class="cls-6" d="M20.85,81.65C43.72,58.09,66.85,34.82,90.25,11.78c13.59-13.47,36.56-17.1,50.33-1.78,5.7,6.39,8.4,9.57,13.83,15.93-27.75,29.21-58.6,55.11-86.71,83.96-15.61-9.43-31.35-18.62-46.84-28.23Z"/><path class="cls-4" d="M53.43,182.49c-14.4-13.58-29.05-26.88-43.41-40.5-13.77-13.52-13.02-35.99,.27-49.51,17.77-18.06,35.39-36.41,53.33-54.39-21.34,26.35-19.97,48.95,4.07,71.79,18.46,17.54,36.37,36.64,54.38,55.31-18.65,15.54-45.72,40.65-68.64,17.29Z"/></g><g><path class="cls-5" d="M209.02,68.12c-27.37,27.54-55.38,54.09-84.61,79.66-11.98-12.96-23.73-26.03-36.3-38.43,33.42-32.17,67.48-62.48,98.33-97.27,12.41-14.18,34.27-12.66,47.22-.06,15.12,14.69,30.41,29.2,45.7,43.72-23.39,4.56-46.8,8.7-70.34,12.39Z"/><path class="cls-10" d="M316.14,160.75c-20.63,20.69-41.34,41.31-62.07,61.89-13.99,13.8-36.23,12.9-50.49,.03-6.94-6.33-10.5-9.47-17.51-15.75,28.58-25.95,56.15-52.86,83.43-80.16,15.64,11.21,31.19,22.52,46.64,33.99Z"/><path class="cls-1" d="M279.36,55.72c15.75,15.01,31.4,30.12,46.91,45.39,13.54,13.53,13.45,35.98,0,49.49-16.22,16.29-32.52,32.59-48.83,48.84,21.02-26.88,14.33-50.09-7.94-72.67-19.21-19.48-40.75-38.68-60.48-58.65,23.08-21.81,42.89-34.33,70.34-12.39Z"/></g></g><g><path class="cls-7" d="M480.64,206.5h-63.87c-29.44,0-44.37-14.93-44.37-44.37V26.5h43.12V162.12c0,1.82,.19,2.69,.32,3.06,.27,.02,.65,.02,.93,.02h63.87c.28,0,.66,0,.93-.02,.12-.37,.32-1.24,.32-3.06V26.5h43.12V162.12c0,29.44-14.93,44.37-44.37,44.37Z"/><path class="cls-3" d="M770.97,206.5h-63.87c-29.44,0-44.37-14.93-44.37-44.37V26.5h43.12V162.12c0,1.82,.19,2.69,.32,3.06,.27,.02,.65,.02,.93,.02h63.87c.28,0,.66,0,.93-.02,.12-.37,.32-1.24,.32-3.06V26.5h43.12V162.12c0,29.44-14.93,44.37-44.37,44.37Z"/><path class="cls-8" d="M943.55,206.5h-63.87c-29.44,0-44.37-14.93-44.37-44.37v-12.53h43.12v12.53c0,1.82,.19,2.69,.32,3.06,.27,.02,.65,.02,.93,.02h63.87c.28,0,.66,0,.93-.02,.12-.37,.32-1.24,.32-3.06q0-12.8-8.3-15.57l-54.75-18.25c-34.85-11.7-46.45-21.64-46.45-57.43,0-29.44,14.93-44.37,44.37-44.37h63.87c29.44,0,44.37,14.93,44.37,44.37v12.53h-43.12v-12.53c0-1.82-.19-2.69-.32-3.06-.27-.02-.65-.02-.93-.02h-63.87c-.28,0-.66,0-.93,.02-.12,.37-.32,1.24-.32,3.06q0,12.8,8.3,15.57l54.75,18.25c34.85,11.7,46.44,21.64,46.44,57.43,0,29.44-14.93,44.37-44.37,44.37Z"/><polygon class="cls-9" points="596.65 26.5 596.65 147.52 527.14 26.5 481.91 26.5 579.77 206.5 639.78 206.5 639.78 26.5 596.65 26.5"/></g></g></g></svg>