<?xml version="1.0" encoding="UTF-8"?><svg id="Camada_2" xmlns="http://www.w3.org/2000/svg" xmlns:xlink="http://www.w3.org/1999/xlink" viewBox="0 0 371.91 166.73"><defs><style>.cls-1{fill:url(#Gradiente_sem_nome_2-8);}.cls-2{fill:url(#Gradiente_sem_nome_2-4);}.cls-3{fill:url(#Gradiente_sem_nome_64);}.cls-4{fill:url(#Gradiente_sem_nome_2-7);}.cls-5{fill:url(#Gradiente_sem_nome_2-11);}.cls-6{fill:url(#Gradiente_sem_nome_2-12);}.cls-7{fill:#f5f5f5;}.cls-8{fill:url(#Gradiente_sem_nome_2-5);}.cls-9{fill:#981916;}.cls-10{fill:url(#Gradiente_sem_nome_64-2);}.cls-11{fill:url(#Gradiente_sem_nome_2-6);}.cls-12{fill:url(#Gradiente_sem_nome_2-13);}.cls-13{fill:url(#Gradiente_sem_nome_2-10);}.cls-14{fill:url(#Gradiente_sem_nome_2-9);}.cls-15{fill:url(#Gradiente_sem_nome_2);}.cls-16{fill:url(#Gradiente_sem_nome_2-2);}.cls-17{fill:url(#Gradiente_sem_nome_2-3);}.cls-18{fill:url(#Gradiente_sem_nome_65);}</style><linearGradient id="Gradiente_sem_nome_2" x1="313.87" y1="53.19" x2="255.65" y2="26.96" gradientUnits="userSpaceOnUse"><stop offset="0" stop-color="#f5f5f5"/><stop offset="1" stop-color="#d9d9d9"/></linearGradient><linearGradient id="Gradiente_sem_nome_64" x1="186.89" y1="12.94" x2="137.2" y2="18.5" gradientUnits="userSpaceOnUse"><stop offset="0" stop-color="#f5f5f5"/><stop offset="1" stop-color="#d9d9d9"/></linearGradient><linearGradient id="Gradiente_sem_nome_2-2" x1="282.23" y1="62.22" x2="242.6" y2="52.65" xlink:href="#Gradiente_sem_nome_2"/><linearGradient id="Gradiente_sem_nome_64-2" x1="185.1" y1="69.08" x2="128.42" y2="67.35" xlink:href="#Gradiente_sem_nome_64"/><linearGradient id="Gradiente_sem_nome_2-3" x1="128.28" y1="65.34" x2="99.08" y2="51.36" xlink:href="#Gradiente_sem_nome_2"/><linearGradient id="Gradiente_sem_nome_2-4" x1="98.45" y1="21.02" x2="73.43" y2="48.98" xlink:href="#Gradiente_sem_nome_2"/><linearGradient id="Gradiente_sem_nome_2-5" x1="239.17" y1="14.45" x2="98.99" y2="11.39" xlink:href="#Gradiente_sem_nome_2"/><linearGradient id="Gradiente_sem_nome_2-6" x1="86.36" y1="165.69" x2="80.23" y2="151.65" xlink:href="#Gradiente_sem_nome_2"/><linearGradient id="Gradiente_sem_nome_2-7" x1="211.49" y1="167.36" x2="188.89" y2="95.87" xlink:href="#Gradiente_sem_nome_2"/><linearGradient id="Gradiente_sem_nome_2-8" x1="130.69" y1="165.92" x2="115.12" y2="126.09" xlink:href="#Gradiente_sem_nome_2"/><linearGradient id="Gradiente_sem_nome_2-9" x1="98.46" y1="87.83" x2="87.99" y2="133.79" xlink:href="#Gradiente_sem_nome_2"/><linearGradient id="Gradiente_sem_nome_2-10" x1="23.92" y1="164.29" x2="37.71" y2="98.68" xlink:href="#Gradiente_sem_nome_2"/><linearGradient id="Gradiente_sem_nome_2-11" x1="279.94" y1="165.86" x2="274.58" y2="143.14" xlink:href="#Gradiente_sem_nome_2"/><linearGradient id="Gradiente_sem_nome_65" x1="297.6" y1="116.23" x2="252.41" y2="111.83" gradientUnits="userSpaceOnUse"><stop offset="0" stop-color="#f5f5f5"/><stop offset=".41" stop-color="#f1f1f1"/><stop offset=".73" stop-color="#e8e8e8"/><stop offset="1" stop-color="#d9d9d9"/></linearGradient><linearGradient id="Gradiente_sem_nome_2-12" x1="311.93" y1="161.7" x2="361.72" y2="135.92" xlink:href="#Gradiente_sem_nome_2"/><linearGradient id="Gradiente_sem_nome_2-13" x1="367.33" y1="87.47" x2="319.07" y2="111.34" xlink:href="#Gradiente_sem_nome_2"/></defs><g id="Camada_1-2"><g><path class="cls-15" d="M303.5,41.47s0-.06-.02-.09c-.25-1.51-1.65-4.75-2.37-5.83-2.87-4.29-12.8-6.96-12.8-6.96-3.17-.85-9.62-2.49-26.39-5.14-2.34-.37-7.12-1.11-13.39-1.82-1.11-.12-2.02-.22-2.65-.29,7.84,1.94,15.69,3.87,23.54,5.81,5.13,1.15,11.83,2.78,19.42,4.96,2.24,.64,5.44,1.61,7.98,4.49,1.62,1.84,2.3,3.7,2.67,4.75,2.63,7.42-.22,15.92-1.15,18.45,1.77-2.8,2.89-5.23,3.59-6.99,.73-1.83,1.02-2.97,1.17-3.61,.16-.71,.42-2.38,.56-4.56,.07-1.06,.02-2.13-.14-3.18Z"/><path class="cls-3" d="M166.72,12.03c-18.23,2.59-21.83,2.16-27.67,5.72-2.65,1.62-4.58,3.33-5.76,4.49,4.87-2.59,9.07-3.97,12-4.75,2.32-.62,3.84-.86,17.05-2.45,9.29-1.12,10.05-1.19,11.33-1.23,6.74-.21,12.24,.74,15.84,1.58-2.37-1.45-6.16-3.35-11.09-4.07-3.65-.53-5.91-.12-11.7,.71Z"/><path class="cls-16" d="M261.05,41.18c-8.34-.18-16.15,6.13-17.44,14.37-1.28,8.16,4.46,14.18,5.17,14.9-.62-1.32-4.55-9.94-.35-17.51,.53-.96,1.89-3.34,4.68-5.05,5.16-3.17,12.55-2.39,16.93,1.71,2.39,2.24,3.25,4.86,3.77,6.53,2.04,6.54-.09,12.27-.96,14.32,5.25-6.06,6.15-14.52,2.4-20.92-2.95-5.03-8.44-8.23-14.19-8.35Z"/><g><path class="cls-10" d="M124.38,70.46h61.7c-5.63-1.83-10.33-2.88-13.57-3.5-9.29-1.77-23.37-2.29-34.09-2.48-2.25-.04-5.49-.08-9.41-.1,0,0,0,0,0,.01-.41,.96-.93,1.94-1.61,2.9-.98,1.38-2.06,2.41-3.01,3.17Z"/><path class="cls-17" d="M130.33,56.95c-.19-1.75-.88-5.82-4.02-9.57-5.06-6.03-12.33-6.28-13.54-6.31-.58-.01-9.66-.02-14.84,7.07-2.34,3.2-2.86,6.48-3.06,7.91-.26,1.77-.94,6.5,1.84,10.92,1.06,1.68,2.29,2.8,3.18,3.49-.25-.61-4.3-10.7,.54-17.43,1.9-2.64,4.58-4.11,4.58-4.11,.6-.33,3.39-1.8,7.27-1.64,.82,.03,4.68,.21,8.34,3.05,5.7,4.42,7.06,10.33,4.28,18.6l-.51,1.53c.96-.76,2.03-1.79,3.01-3.17,.68-.96,1.21-1.94,1.61-2.9,1.32-3.11,1.38-6.01,1.32-7.44Z"/></g><g><path class="cls-2" d="M84.32,23.13c-3.93,.15-7.32,.28-11.3,2.88-2.09,1.37-3.07,2.6-3.55,3.35,0,0-.16,.25-.3,.5-1.9,3.44-.19,11.67-.19,11.67,.78,3.73,1.47,7.03,3.32,11.4,1.32,3.1,2.73,5.58,3.84,7.35-.32-1.76-4.03-22.85-1.45-27.24,.49-.83,1.11-1.45,1.11-1.45,1.39-1.38,3.18-1.92,7.26-2.34,4.62-.48,5.47-.12,9.29-.71,4.1-.64,6.85-1.61,10.88-3.33,0,0,3.1-1.32,20.37-8.13-15.06,3.91-27.72,5.23-34.65,5.67-1.65,.24-3.03,.31-4.65,.37Z"/><path class="cls-8" d="M252.36,26.86c-3.31-1.25-6.57-2.74-9.69-4.41-1.39-.74-2.77-1.54-4.2-2.41-6.43-3.7-13.07-7.53-19.82-10.98C206.75,2.96,193.95,0,179.51,0h-1.1c-2.43,.03-4.95,.14-7.48,.34,0,0-2.16,.16-4.36,.39-19.57,2.1-43.34,10.34-43.58,10.42-2.88,1.01-4.45,1.61-6.43,2.37-.83,.32-1.74,.67-2.84,1.08-2.1,.79-4.27,1.59-8.63,3.16-7,2.51-10.85,3.89-11.66,4.09-1.81,.45-3.21,.73-4.46,.91,6.93-.44,19.59-1.76,34.65-5.67,1.39-.55,2.87-1.13,4.45-1.75,6.91-2.72,13.36-4.64,18.86-6,0,0,0,0,0,0,0,0,0,0,0,0,8.5-2.1,14.72-2.86,16.83-3.09,5.86-.66,12.96-1.41,22.28-.45,14.34,1.49,25.53,6.17,31.6,8.76,9.28,3.96,11.71,6.31,21.33,9.47,6.73,2.21,12.49,3.34,16.35,3.96l-2.96-1.12Z"/></g><polygon class="cls-9" points="115.41 139.77 115.4 139.78 115.41 139.77 115.41 139.77"/><polygon class="cls-11" points="67.88 166.73 88.21 166.73 94.94 141.98 68.36 164.97 67.88 166.73"/><g><path class="cls-4" d="M200.64,84.99h0c-3.82,9-7.64,18-11.46,27l-1.38,3.26c.98,5.95,1.97,11.9,2.95,17.85h-.09c1.82,11.21,3.63,22.42,5.45,33.63h18.49l-13.96-81.73Zm-2.3,23.35h0s0,0,0,0Z"/><path class="cls-7" d="M198.72,84.99h0s-18.65,0-18.65,0l-34.26,81.73h20.12l21.86-51.48,1.38-3.26c3.82-9,7.64-18,11.46-27h0c-.64,0-1.28,0-1.92,0Z"/><path class="cls-7" d="M200.64,84.99h-1.92c.64,0,1.28,0,1.92,0Z"/></g><polygon class="cls-1" points="119.54 166.73 141.27 166.73 123.57 118.37 107.47 131.45 119.54 166.73"/><polygon class="cls-14" points="110.49 84.99 90.16 84.99 75.26 139.65 101.82 116.72 110.49 84.99"/><polygon class="cls-7" points="138.54 84.99 101.82 116.72 75.26 139.65 75.26 139.66 68.36 164.97 94.94 141.98 107.47 131.45 123.57 118.37 161.78 84.99 138.54 84.99"/><path class="cls-7" d="M78.71,84.99H4.27L0,100.63c9.72,0,19.46,0,29.2,0,6.78,0,13.55,0,20.32,0,8.31,0,16.62,0,24.92,0l4.27-15.64Z"/><path class="cls-13" d="M18.56,139.65h0s-6.9,25.32-6.9,25.32l-.48,1.76H31.5s6.74-24.75,6.74-24.75l7.05-25.87,4.23-15.47c-6.78,0-13.55,0-20.32,0l-10.64,39.02Z"/><polygon class="cls-7" points="241.31 84.99 241.31 85 228.63 131.51 226.41 139.65 226.41 139.65 219.51 164.97 219.03 166.73 239.35 166.73 246.09 141.98 247.51 136.78 250.69 125.1 253.14 116.11 257.34 100.73 261.64 85 261.64 84.99 241.31 84.99"/><path class="cls-5" d="M265.82,140.86c1.4,8.62,2.8,17.25,4.19,25.87h18.49l-4.64-27.15c-2.7,.84-5.54,1.28-8.41,1.28h-9.64Z"/><path class="cls-18" d="M301.1,98.26c-1.3-3.29-2.83-5.18-3.36-5.81-1.29-1.53-2.84-2.85-4.63-3.96-3.77-2.33-8.36-3.49-13.77-3.49h-17.68l-4.3,15.74h14.24c.31,0,2.99-.15,5.82,1.03,1.66,.69,3.37,1.84,4.68,3.74,2.46,3.57,2.13,8.09,1.11,10.92-.58,1.62-1.44,3-2.58,4.15-2.93,2.98-7.8,4.45-15.13,4.52h-14.8l-4.29,15.76h29.06c2.87,0,5.71-.44,8.41-1.28,4.35-1.36,8.33-3.79,11.49-7.18,.23-.25,.46-.51,.69-.77,5.98-6.92,6.74-14.57,7.08-17.98,.11-1.06,.76-8.35-2.03-15.39Z"/><path class="cls-6" d="M328.22,150.6c-3.94,0-7.98-.49-12.13-1.48-4.14-.99-7.9-2.26-11.26-3.82l-3.57,16.86c2.95,1.48,6.63,2.61,11.02,3.38,4.39,.78,9.21,1.17,14.46,1.17,11.16,0,19.92-2.15,26.28-6.46,6.36-4.31,10.28-9.95,11.75-16.93,.4-1.94,.63-3.79,.67-5.54-10.62,23.94-37.23,12.8-37.23,12.8Z"/><path class="cls-12" d="M348.03,101.37c3.36,0,6.75,.33,10.16,.98,3.4,.66,6.75,1.68,10.03,3.08l3.69-16.99c-2.54-.9-5.91-1.7-10.09-2.4-4.19-.7-8.58-1.05-13.17-1.05-10.59,0-19.02,2.01-25.3,6.03-5.75,3.69-9.53,8.87-11.39,15.52,17.65-11.13,36.07-5.18,36.07-5.18Z"/><path class="cls-7" d="M334.18,104s.1-.07,.14-.11c.75-.57,1.65-1.01,2.69-1.3,2.91-.82,6.59-1.23,11.02-1.23,0,0-18.42-5.95-36.07,5.18-.17,.61-.35,1.21-.48,1.84-1.31,6.24-.72,11.1,1.79,14.59,2.3,3.2,6.77,5.94,13.4,8.21,.59,.2,1.18,.4,1.8,.59,4.27,1.31,7.65,2.44,10.15,3.39,2.5,.94,4.2,2.03,5.11,3.26,.9,1.23,1.15,2.87,.74,4.92-.66,3.04-2.3,5.01-4.92,5.91-2.63,.9-6.4,1.35-11.32,1.35,0,0,26.62,11.14,37.23-12.8,.05-1.8-.09-3.51-.43-5.11-.66-3.16-2.44-5.95-5.35-8.37-2.91-2.42-7.45-4.49-13.6-6.22-3.94-1.15-7.04-2.13-9.29-2.95-2.26-.82-3.75-1.74-4.49-2.77-.74-1.03-.94-2.4-.61-4.12,.41-1.83,1.25-3.25,2.52-4.26Z"/></g></g></svg>